# xmcd
#
# Track frame offsets:
#	150
#	15434
#	29895
#	39980
#	54036
#	64723
#	77201
#	90572
#	105035
#	116646
#	128144
#	143162
#	155471
#	171129
#	182450
#	195024
#	206154
#	219154
#
# Disc length: 3081 seconds
#
# Revision: 1
# Processed by: cddbd v1.5.2PL0 Copyright (c) Steve Scherf et al.
# Submitted via: audiograbber 1.83.01
#
DISCID=dd0c0712
DTITLE=Various Artist - motown guys sing the hits cd1
DYEAR=1900
DGENRE=
TTITLE0=Michael Jackson  - Happy 
TTITLE1=Smokey Robinson and the Miracles  -  I Don't Blame You At All
TTITLE2=R Dean Taylor  - There's A Ghost In My House 
TTITLE3=Michael Jackson  - My Girl  
TTITLE4=Smokey Robinson and the Miracles  - Special Occasion  
TTITLE5=Marvin Gaye  - I'll Be Doggone
TTITLE6=Jimmy Ruffin  - I'll Say Forever My Love  
TTITLE7=Detroit Spinners  - It's A Shame   
TTITLE8=Smokey Robinson and the Miracles  -  I'm On The Outside (Lookin' In)   
TTITLE9=Edwin Starr  - You Beat Me To The Punch  
TTITLE10=The Isley Brothers  - I Hear A Symphony  
TTITLE11=Jackson 5 - Come Round Here (I'm The One You Need)  
TTITLE12=David Ruffin - My Whole World Ended (The Moment You Left Me)  
TTITLE13=The Isley Brothers  - Baby Don't You Do It  
TTITLE14=Rare Earth  - Get Ready  
TTITLE15=Tammi Terrell Marvin Gaye  - Ain't No Mountain High Enough 
TTITLE16=The Contours  - Do You Love Me 
TTITLE17=Barrett Strong  - Money (That's What I Want) 
EXTD=
EXTT0=
EXTT1=
EXTT2=
EXTT3=
EXTT4=
EXTT5=
EXTT6=
EXTT7=
EXTT8=
EXTT9=
EXTT10=
EXTT11=
EXTT12=
EXTT13=
EXTT14=
EXTT15=
EXTT16=
EXTT17=
PLAYORDER=
